<svg width="227" height="52" viewBox="0 0 227 52" fill="none" xmlns="http://www.w3.org/2000/svg">
<path d="M5 27.3142L3.59214 25.8937L0.140812 29.3142H5V27.3142ZM29.533 3L30.9252 1.56408L29.5177 0.199409L28.1252 1.57946L29.533 3ZM54.6113 27.3142V29.3142H59.5473L56.0034 25.8783L54.6113 27.3142ZM47.7965 27.3142V25.3142H45.7965V27.3142H47.7965ZM47.7965 49.5528V51.5528H49.7965V49.5528H47.7965ZM11.2696 49.5528H9.26956V51.5528H11.2696V49.5528ZM11.2696 27.3142H13.2696V25.3142H11.2696V27.3142ZM6.40786 28.7347L30.9409 4.42054L28.1252 1.57946L3.59214 25.8937L6.40786 28.7347ZM28.1409 4.43592L53.2191 28.7501L56.0034 25.8783L30.9252 1.56408L28.1409 4.43592ZM54.6113 25.3142H47.7965V29.3142H54.6113V25.3142ZM45.7965 27.3142V49.5528H49.7965V27.3142H45.7965ZM47.7965 47.5528H34.1671V51.5528H47.7965V47.5528ZM25.1716 47.5528H11.2696V51.5528H25.1716V47.5528ZM13.2696 49.5528V27.3142H9.26956V49.5528H13.2696ZM11.2696 25.3142H5V29.3142H11.2696V25.3142ZM25.1716 51.5528H34.1671V47.5528H25.1716V51.5528Z" fill="#F5F5F5"/>
<path d="M53.3239 13.8519L34.0781 33.2541H38.9965V51H49.9024V39.406H56.9592V51H67.6513V33.2541H72.9973L53.3239 13.8519Z" fill="#F5F5F5"/>
<path d="M79.144 27V11.304H73.096V10.2H86.416V11.304H80.368V27H79.144ZM86.2769 27L93.0929 17.856V18.816L86.7329 10.2H88.1729L93.7889 17.784H93.2609L98.8769 10.2H100.245L93.9329 18.72V17.904L100.701 27H99.2609L93.2129 18.888H93.7169L87.7169 27H86.2769Z" fill="#F5F5F5"/>
<path d="M80.692 38.6H81.304V47H80.692V38.6ZM75.076 47H74.464V38.6H75.076V47ZM80.764 43.004H75.004V42.464H80.764V43.004ZM87.8014 47.06C87.1774 47.06 86.5974 46.956 86.0614 46.748C85.5334 46.532 85.0694 46.232 84.6694 45.848C84.2774 45.456 83.9734 45.004 83.7574 44.492C83.5414 43.972 83.4334 43.408 83.4334 42.8C83.4334 42.192 83.5414 41.632 83.7574 41.12C83.9734 40.6 84.2774 40.148 84.6694 39.764C85.0694 39.372 85.5334 39.072 86.0614 38.864C86.5974 38.648 87.1774 38.54 87.8014 38.54C88.4254 38.54 89.0014 38.648 89.5294 38.864C90.0654 39.072 90.5294 39.368 90.9214 39.752C91.3134 40.136 91.6174 40.588 91.8334 41.108C92.0574 41.62 92.1694 42.184 92.1694 42.8C92.1694 43.416 92.0574 43.984 91.8334 44.504C91.6174 45.016 91.3134 45.464 90.9214 45.848C90.5294 46.232 90.0654 46.532 89.5294 46.748C89.0014 46.956 88.4254 47.06 87.8014 47.06ZM87.8014 46.496C88.3374 46.496 88.8334 46.404 89.2894 46.22C89.7454 46.036 90.1414 45.776 90.4774 45.44C90.8134 45.104 91.0734 44.712 91.2574 44.264C91.4494 43.816 91.5454 43.328 91.5454 42.8C91.5454 42.264 91.4494 41.776 91.2574 41.336C91.0734 40.888 90.8134 40.496 90.4774 40.16C90.1414 39.824 89.7454 39.564 89.2894 39.38C88.8334 39.196 88.3374 39.104 87.8014 39.104C87.2654 39.104 86.7694 39.196 86.3134 39.38C85.8574 39.564 85.4574 39.824 85.1134 40.16C84.7774 40.496 84.5134 40.888 84.3214 41.336C84.1374 41.776 84.0454 42.264 84.0454 42.8C84.0454 43.328 84.1374 43.816 84.3214 44.264C84.5134 44.712 84.7774 45.104 85.1134 45.44C85.4574 45.776 85.8574 46.036 86.3134 46.22C86.7694 46.404 87.2654 46.496 87.8014 46.496ZM94.2921 47V38.6H94.8081L98.7081 45.332H98.4321L102.32 38.6H102.824L102.836 47H102.236L102.224 39.524H102.392L98.7081 45.884H98.4081L94.7121 39.524H94.8921V47H94.2921ZM106.305 42.464H110.853V43.004H106.305V42.464ZM106.377 46.448H111.561V47H105.765V38.6H111.381V39.152H106.377V46.448ZM116.874 47V38.6H119.886C120.59 38.6 121.194 38.712 121.698 38.936C122.202 39.16 122.59 39.484 122.862 39.908C123.134 40.324 123.27 40.832 123.27 41.432C123.27 42.016 123.134 42.52 122.862 42.944C122.59 43.36 122.202 43.684 121.698 43.916C121.194 44.14 120.59 44.252 119.886 44.252H117.21L117.486 43.964V47H116.874ZM122.706 47L120.522 43.952H121.218L123.402 47H122.706ZM117.486 44L117.21 43.712H119.886C120.79 43.712 121.474 43.512 121.938 43.112C122.41 42.712 122.646 42.152 122.646 41.432C122.646 40.704 122.41 40.144 121.938 39.752C121.474 39.352 120.79 39.152 119.886 39.152H117.21L117.486 38.852V44ZM126.051 42.464H130.599V43.004H126.051V42.464ZM126.123 46.448H131.307V47H125.511V38.6H131.127V39.152H126.123V46.448ZM133.538 47V38.6H134.054L137.954 45.332H137.678L141.566 38.6H142.07L142.082 47H141.482L141.47 39.524H141.638L137.954 45.884H137.654L133.958 39.524H134.138V47H133.538ZM148.575 47.06C147.951 47.06 147.371 46.956 146.835 46.748C146.307 46.532 145.843 46.232 145.443 45.848C145.051 45.456 144.747 45.004 144.531 44.492C144.315 43.972 144.207 43.408 144.207 42.8C144.207 42.192 144.315 41.632 144.531 41.12C144.747 40.6 145.051 40.148 145.443 39.764C145.843 39.372 146.307 39.072 146.835 38.864C147.371 38.648 147.951 38.54 148.575 38.54C149.199 38.54 149.775 38.648 150.303 38.864C150.839 39.072 151.303 39.368 151.695 39.752C152.087 40.136 152.391 40.588 152.607 41.108C152.831 41.62 152.943 42.184 152.943 42.8C152.943 43.416 152.831 43.984 152.607 44.504C152.391 45.016 152.087 45.464 151.695 45.848C151.303 46.232 150.839 46.532 150.303 46.748C149.775 46.956 149.199 47.06 148.575 47.06ZM148.575 46.496C149.111 46.496 149.607 46.404 150.063 46.22C150.519 46.036 150.915 45.776 151.251 45.44C151.587 45.104 151.847 44.712 152.031 44.264C152.223 43.816 152.319 43.328 152.319 42.8C152.319 42.264 152.223 41.776 152.031 41.336C151.847 40.888 151.587 40.496 151.251 40.16C150.915 39.824 150.519 39.564 150.063 39.38C149.607 39.196 149.111 39.104 148.575 39.104C148.039 39.104 147.543 39.196 147.087 39.38C146.631 39.564 146.231 39.824 145.887 40.16C145.551 40.496 145.287 40.888 145.095 41.336C144.911 41.776 144.819 42.264 144.819 42.8C144.819 43.328 144.911 43.816 145.095 44.264C145.287 44.712 145.551 45.104 145.887 45.44C146.231 45.776 146.631 46.036 147.087 46.22C147.543 46.404 148.039 46.496 148.575 46.496ZM155.066 47V38.6H158.39C159.278 38.6 160.058 38.78 160.73 39.14C161.402 39.5 161.922 39.996 162.29 40.628C162.666 41.26 162.854 41.984 162.854 42.8C162.854 43.616 162.666 44.34 162.29 44.972C161.922 45.604 161.402 46.1 160.73 46.46C160.058 46.82 159.278 47 158.39 47H155.066ZM155.678 46.448H158.342C159.134 46.448 159.822 46.292 160.406 45.98C160.99 45.668 161.442 45.24 161.762 44.696C162.082 44.144 162.242 43.512 162.242 42.8C162.242 42.088 162.082 41.46 161.762 40.916C161.442 40.364 160.99 39.932 160.406 39.62C159.822 39.308 159.134 39.152 158.342 39.152H155.678V46.448ZM165.52 42.464H170.068V43.004H165.52V42.464ZM165.592 46.448H170.776V47H164.98V38.6H170.596V39.152H165.592V46.448ZM173.007 47V38.6H173.619V46.448H178.455V47H173.007ZM180.027 47V38.6H180.639V47H180.027ZM183.566 47V38.6H184.082L190.07 46.244H189.794V38.6H190.406V47H189.902L183.902 39.356H184.178V47H183.566ZM196.927 47.06C196.295 47.06 195.711 46.956 195.175 46.748C194.639 46.532 194.171 46.232 193.771 45.848C193.379 45.464 193.075 45.016 192.859 44.504C192.643 43.984 192.535 43.416 192.535 42.8C192.535 42.184 192.643 41.62 192.859 41.108C193.075 40.588 193.383 40.136 193.783 39.752C194.183 39.368 194.647 39.072 195.175 38.864C195.711 38.648 196.299 38.54 196.939 38.54C197.547 38.54 198.111 38.636 198.631 38.828C199.151 39.02 199.595 39.308 199.963 39.692L199.579 40.1C199.211 39.74 198.807 39.484 198.367 39.332C197.935 39.18 197.463 39.104 196.951 39.104C196.407 39.104 195.903 39.196 195.439 39.38C194.975 39.564 194.571 39.824 194.227 40.16C193.883 40.496 193.615 40.888 193.423 41.336C193.239 41.784 193.147 42.272 193.147 42.8C193.147 43.328 193.239 43.816 193.423 44.264C193.615 44.712 193.883 45.104 194.227 45.44C194.571 45.776 194.975 46.036 195.439 46.22C195.903 46.404 196.407 46.496 196.951 46.496C197.447 46.496 197.915 46.42 198.355 46.268C198.803 46.116 199.211 45.864 199.579 45.512L199.927 45.98C199.551 46.34 199.099 46.612 198.571 46.796C198.051 46.972 197.503 47.06 196.927 47.06ZM199.339 45.92V42.836H199.927V45.98L199.339 45.92ZM205.702 47V38.6H206.314V46.448H211.15V47H205.702ZM212.722 47V38.6H213.334V46.448H218.17V47H212.722ZM223.129 47.06C222.505 47.06 221.925 46.956 221.389 46.748C220.861 46.532 220.401 46.232 220.009 45.848C219.617 45.464 219.313 45.016 219.097 44.504C218.881 43.984 218.773 43.416 218.773 42.8C218.773 42.184 218.881 41.62 219.097 41.108C219.313 40.588 219.617 40.136 220.009 39.752C220.409 39.368 220.873 39.072 221.401 38.864C221.929 38.648 222.505 38.54 223.129 38.54C223.721 38.54 224.273 38.636 224.785 38.828C225.305 39.02 225.749 39.312 226.117 39.704L225.733 40.1C225.373 39.748 224.973 39.496 224.533 39.344C224.101 39.184 223.641 39.104 223.153 39.104C222.617 39.104 222.117 39.196 221.653 39.38C221.197 39.564 220.797 39.824 220.453 40.16C220.117 40.496 219.853 40.888 219.661 41.336C219.477 41.784 219.385 42.272 219.385 42.8C219.385 43.328 219.477 43.816 219.661 44.264C219.853 44.712 220.117 45.104 220.453 45.44C220.797 45.776 221.197 46.036 221.653 46.22C222.117 46.404 222.617 46.496 223.153 46.496C223.641 46.496 224.101 46.42 224.533 46.268C224.973 46.108 225.373 45.848 225.733 45.488L226.117 45.884C225.749 46.276 225.305 46.572 224.785 46.772C224.273 46.964 223.721 47.06 223.129 47.06Z" fill="#F5F5F5"/>
</svg>
