<svg width="457" height="105" viewBox="0 0 457 105" fill="none" xmlns="http://www.w3.org/2000/svg">
<path d="M55.9196 0L0 50.4062H14.2906V96.5094H45.9783H66.4821H97.5486V50.4062H113.082L55.9196 0Z" fill="#E87000"/>
<path d="M110.157 19.4971L66.2891 59.7202H77.4998V96.5096H102.358V72.4739H118.443V96.5096H142.814V59.7202H155L110.157 19.4971Z" fill="white"/>
<path d="M175.288 58V26.608H163.192V24.4H189.832V26.608H177.736V58H175.288ZM202.686 58.192C200.158 58.192 197.918 57.648 195.966 56.56C194.046 55.472 192.526 53.968 191.406 52.048C190.318 50.128 189.774 47.936 189.774 45.472C189.774 42.976 190.286 40.784 191.31 38.896C192.366 36.976 193.806 35.472 195.63 34.384C197.454 33.296 199.502 32.752 201.774 32.752C204.046 32.752 206.078 33.28 207.87 34.336C209.694 35.392 211.118 36.88 212.142 38.8C213.198 40.688 213.726 42.88 213.726 45.376C213.726 45.472 213.71 45.584 213.678 45.712C213.678 45.808 213.678 45.92 213.678 46.048H191.55V44.176H212.382L211.422 45.088C211.454 43.136 211.038 41.392 210.174 39.856C209.342 38.288 208.206 37.072 206.766 36.208C205.326 35.312 203.662 34.864 201.774 34.864C199.918 34.864 198.254 35.312 196.782 36.208C195.342 37.072 194.206 38.288 193.374 39.856C192.542 41.392 192.126 43.152 192.126 45.136V45.568C192.126 47.616 192.574 49.44 193.47 51.04C194.398 52.608 195.662 53.84 197.262 54.736C198.862 55.6 200.686 56.032 202.734 56.032C204.334 56.032 205.822 55.744 207.198 55.168C208.606 54.592 209.79 53.712 210.75 52.528L212.142 54.112C211.054 55.456 209.678 56.48 208.014 57.184C206.382 57.856 204.606 58.192 202.686 58.192ZM216.463 58L226.879 44.464L226.831 45.616L216.991 32.944H219.727L228.319 44.032H227.311L235.855 32.944H238.543L228.607 45.76L228.655 44.464L239.215 58H236.383L227.311 46.192L228.223 46.288L219.199 58H216.463ZM260.661 58V52.288L260.565 51.424V42.016C260.565 39.68 259.925 37.904 258.645 36.688C257.397 35.472 255.557 34.864 253.125 34.864C251.397 34.864 249.781 35.168 248.277 35.776C246.805 36.352 245.541 37.104 244.485 38.032L243.285 36.304C244.533 35.184 246.037 34.32 247.797 33.712C249.557 33.072 251.397 32.752 253.317 32.752C256.421 32.752 258.805 33.536 260.469 35.104C262.133 36.672 262.965 39.008 262.965 42.112V58H260.661ZM251.637 58.192C249.781 58.192 248.165 57.904 246.789 57.328C245.445 56.72 244.405 55.872 243.669 54.784C242.965 53.696 242.613 52.448 242.613 51.04C242.613 49.76 242.901 48.608 243.477 47.584C244.085 46.528 245.077 45.68 246.453 45.04C247.829 44.368 249.669 44.032 251.973 44.032H261.189V45.904H252.021C249.429 45.904 247.605 46.384 246.549 47.344C245.525 48.304 245.013 49.504 245.013 50.944C245.013 52.544 245.621 53.824 246.837 54.784C248.053 55.744 249.765 56.224 251.973 56.224C254.085 56.224 255.861 55.744 257.301 54.784C258.773 53.824 259.861 52.432 260.565 50.608L261.237 52.24C260.565 54.064 259.413 55.52 257.781 56.608C256.181 57.664 254.133 58.192 251.637 58.192ZM279.19 58.192C277.11 58.192 275.158 57.888 273.334 57.28C271.542 56.672 270.15 55.904 269.158 54.976L270.262 53.056C271.222 53.888 272.502 54.608 274.102 55.216C275.702 55.792 277.43 56.08 279.286 56.08C281.91 56.08 283.798 55.648 284.95 54.784C286.102 53.92 286.678 52.784 286.678 51.376C286.678 50.352 286.374 49.552 285.766 48.976C285.19 48.368 284.406 47.904 283.414 47.584C282.422 47.264 281.334 47.008 280.15 46.816C278.966 46.592 277.782 46.352 276.598 46.096C275.414 45.84 274.326 45.472 273.334 44.992C272.342 44.512 271.542 43.856 270.934 43.024C270.358 42.16 270.07 41.024 270.07 39.616C270.07 38.336 270.422 37.184 271.126 36.16C271.83 35.136 272.886 34.32 274.294 33.712C275.702 33.072 277.462 32.752 279.574 32.752C281.142 32.752 282.71 32.976 284.278 33.424C285.878 33.872 287.174 34.464 288.166 35.2L287.062 37.12C286.006 36.32 284.822 35.744 283.51 35.392C282.198 35.04 280.87 34.864 279.526 34.864C277.094 34.864 275.302 35.312 274.15 36.208C273.03 37.104 272.47 38.224 272.47 39.568C272.47 40.624 272.758 41.472 273.334 42.112C273.942 42.72 274.742 43.2 275.734 43.552C276.726 43.872 277.814 44.144 278.998 44.368C280.182 44.56 281.366 44.784 282.55 45.04C283.734 45.296 284.822 45.664 285.814 46.144C286.806 46.592 287.59 47.232 288.166 48.064C288.774 48.864 289.078 49.952 289.078 51.328C289.078 52.704 288.694 53.904 287.926 54.928C287.19 55.952 286.086 56.752 284.614 57.328C283.142 57.904 281.334 58.192 279.19 58.192ZM183.512 74.6H185.144V97H183.512V74.6ZM168.536 97H166.904V74.6H168.536V97ZM183.704 86.344H168.344V84.904H183.704V86.344ZM198.983 97.128C197.383 97.128 195.953 96.7653 194.695 96.04C193.457 95.3147 192.465 94.312 191.719 93.032C190.993 91.752 190.631 90.2907 190.631 88.648C190.631 86.984 190.993 85.5227 191.719 84.264C192.465 82.984 193.457 81.9813 194.695 81.256C195.953 80.5307 197.383 80.168 198.983 80.168C200.583 80.168 202.012 80.5307 203.271 81.256C204.529 81.9813 205.521 82.984 206.247 84.264C206.972 85.5227 207.335 86.984 207.335 88.648C207.335 90.2907 206.972 91.752 206.247 93.032C205.521 94.312 204.529 95.3147 203.271 96.04C202.012 96.7653 200.583 97.128 198.983 97.128ZM198.983 95.688C200.263 95.688 201.415 95.4 202.439 94.824C203.463 94.2267 204.263 93.3947 204.839 92.328C205.415 91.2613 205.703 90.0347 205.703 88.648C205.703 87.24 205.415 86.0133 204.839 84.968C204.263 83.9013 203.463 83.08 202.439 82.504C201.415 81.9067 200.263 81.608 198.983 81.608C197.703 81.608 196.551 81.9067 195.527 82.504C194.524 83.08 193.724 83.9013 193.127 84.968C192.551 86.0133 192.263 87.24 192.263 88.648C192.263 90.0347 192.551 91.2613 193.127 92.328C193.724 93.3947 194.524 94.2267 195.527 94.824C196.551 95.4 197.703 95.688 198.983 95.688ZM233.098 80.168C234.442 80.168 235.605 80.4347 236.586 80.968C237.589 81.48 238.368 82.2693 238.922 83.336C239.477 84.3813 239.754 85.6827 239.754 87.24V97H238.154V87.368C238.154 85.4907 237.696 84.0613 236.778 83.08C235.861 82.0987 234.581 81.608 232.938 81.608C231.68 81.608 230.592 81.8747 229.674 82.408C228.757 82.9413 228.053 83.688 227.562 84.648C227.072 85.608 226.826 86.76 226.826 88.104V97H225.226V87.368C225.226 85.4907 224.768 84.0613 223.85 83.08C222.933 82.0987 221.653 81.608 220.01 81.608C218.752 81.608 217.664 81.8747 216.746 82.408C215.829 82.9413 215.125 83.688 214.634 84.648C214.144 85.608 213.898 86.76 213.898 88.104V97H212.298V80.296H213.834V84.904L213.61 84.392C214.101 83.0907 214.922 82.0667 216.074 81.32C217.226 80.552 218.613 80.168 220.234 80.168C221.898 80.168 223.296 80.5947 224.426 81.448C225.578 82.28 226.304 83.528 226.602 85.192L226.058 84.968C226.506 83.5387 227.349 82.3867 228.586 81.512C229.824 80.616 231.328 80.168 233.098 80.168ZM253.145 97.128C251.459 97.128 249.966 96.7653 248.665 96.04C247.385 95.3147 246.371 94.312 245.625 93.032C244.899 91.752 244.537 90.2907 244.537 88.648C244.537 86.984 244.878 85.5227 245.561 84.264C246.265 82.984 247.225 81.9813 248.441 81.256C249.657 80.5307 251.022 80.168 252.537 80.168C254.051 80.168 255.406 80.52 256.601 81.224C257.817 81.928 258.766 82.92 259.449 84.2C260.153 85.4587 260.505 86.92 260.505 88.584C260.505 88.648 260.494 88.7227 260.473 88.808C260.473 88.872 260.473 88.9467 260.473 89.032H245.721V87.784H259.609L258.969 88.392C258.99 87.0907 258.713 85.928 258.137 84.904C257.582 83.8587 256.825 83.048 255.865 82.472C254.905 81.8747 253.795 81.576 252.537 81.576C251.299 81.576 250.19 81.8747 249.209 82.472C248.249 83.048 247.491 83.8587 246.937 84.904C246.382 85.928 246.105 87.1013 246.105 88.424V88.712C246.105 90.0773 246.403 91.2933 247.001 92.36C247.619 93.4053 248.462 94.2267 249.529 94.824C250.595 95.4 251.811 95.688 253.177 95.688C254.243 95.688 255.235 95.496 256.153 95.112C257.091 94.728 257.881 94.1413 258.521 93.352L259.449 94.408C258.723 95.304 257.806 95.9867 256.697 96.456C255.609 96.904 254.425 97.128 253.145 97.128ZM273.673 97V80.296H275.209V84.872L275.049 84.36C275.519 83.016 276.308 81.9813 277.417 81.256C278.527 80.5307 279.913 80.168 281.577 80.168V81.736C281.513 81.736 281.449 81.736 281.385 81.736C281.321 81.7147 281.257 81.704 281.193 81.704C279.337 81.704 277.887 82.2907 276.841 83.464C275.796 84.616 275.273 86.2267 275.273 88.296V97H273.673ZM292.614 97.128C290.928 97.128 289.435 96.7653 288.134 96.04C286.854 95.3147 285.84 94.312 285.094 93.032C284.368 91.752 284.006 90.2907 284.006 88.648C284.006 86.984 284.347 85.5227 285.03 84.264C285.734 82.984 286.694 81.9813 287.91 81.256C289.126 80.5307 290.491 80.168 292.006 80.168C293.52 80.168 294.875 80.52 296.07 81.224C297.286 81.928 298.235 82.92 298.918 84.2C299.622 85.4587 299.974 86.92 299.974 88.584C299.974 88.648 299.963 88.7227 299.942 88.808C299.942 88.872 299.942 88.9467 299.942 89.032H285.19V87.784H299.078L298.438 88.392C298.459 87.0907 298.182 85.928 297.606 84.904C297.051 83.8587 296.294 83.048 295.334 82.472C294.374 81.8747 293.264 81.576 292.006 81.576C290.768 81.576 289.659 81.8747 288.678 82.472C287.718 83.048 286.96 83.8587 286.406 84.904C285.851 85.928 285.574 87.1013 285.574 88.424V88.712C285.574 90.0773 285.872 91.2933 286.47 92.36C287.088 93.4053 287.931 94.2267 288.998 94.824C290.064 95.4 291.28 95.688 292.646 95.688C293.712 95.688 294.704 95.496 295.622 95.112C296.56 94.728 297.35 94.1413 297.99 93.352L298.918 94.408C298.192 95.304 297.275 95.9867 296.166 96.456C295.078 96.904 293.894 97.128 292.614 97.128ZM325.723 80.168C327.067 80.168 328.23 80.4347 329.211 80.968C330.214 81.48 330.993 82.2693 331.547 83.336C332.102 84.3813 332.379 85.6827 332.379 87.24V97H330.779V87.368C330.779 85.4907 330.321 84.0613 329.403 83.08C328.486 82.0987 327.206 81.608 325.563 81.608C324.305 81.608 323.217 81.8747 322.299 82.408C321.382 82.9413 320.678 83.688 320.187 84.648C319.697 85.608 319.451 86.76 319.451 88.104V97H317.851V87.368C317.851 85.4907 317.393 84.0613 316.475 83.08C315.558 82.0987 314.278 81.608 312.635 81.608C311.377 81.608 310.289 81.8747 309.371 82.408C308.454 82.9413 307.75 83.688 307.259 84.648C306.769 85.608 306.523 86.76 306.523 88.104V97H304.923V80.296H306.459V84.904L306.235 84.392C306.726 83.0907 307.547 82.0667 308.699 81.32C309.851 80.552 311.238 80.168 312.859 80.168C314.523 80.168 315.921 80.5947 317.051 81.448C318.203 82.28 318.929 83.528 319.227 85.192L318.683 84.968C319.131 83.5387 319.974 82.3867 321.211 81.512C322.449 80.616 323.953 80.168 325.723 80.168ZM345.514 97.128C343.914 97.128 342.484 96.7653 341.226 96.04C339.988 95.3147 338.996 94.312 338.25 93.032C337.524 91.752 337.162 90.2907 337.162 88.648C337.162 86.984 337.524 85.5227 338.25 84.264C338.996 82.984 339.988 81.9813 341.226 81.256C342.484 80.5307 343.914 80.168 345.514 80.168C347.114 80.168 348.543 80.5307 349.802 81.256C351.06 81.9813 352.052 82.984 352.778 84.264C353.503 85.5227 353.866 86.984 353.866 88.648C353.866 90.2907 353.503 91.752 352.778 93.032C352.052 94.312 351.06 95.3147 349.802 96.04C348.543 96.7653 347.114 97.128 345.514 97.128ZM345.514 95.688C346.794 95.688 347.946 95.4 348.97 94.824C349.994 94.2267 350.794 93.3947 351.37 92.328C351.946 91.2613 352.234 90.0347 352.234 88.648C352.234 87.24 351.946 86.0133 351.37 84.968C350.794 83.9013 349.994 83.08 348.97 82.504C347.946 81.9067 346.794 81.608 345.514 81.608C344.234 81.608 343.082 81.9067 342.058 82.504C341.055 83.08 340.255 83.9013 339.658 84.968C339.082 86.0133 338.794 87.24 338.794 88.648C338.794 90.0347 339.082 91.2613 339.658 92.328C340.255 93.3947 341.055 94.2267 342.058 94.824C343.082 95.4 344.234 95.688 345.514 95.688ZM365.262 97.128C363.704 97.128 362.296 96.776 361.038 96.072C359.8 95.3467 358.819 94.344 358.094 93.064C357.368 91.784 357.006 90.312 357.006 88.648C357.006 86.9627 357.368 85.4907 358.094 84.232C358.819 82.952 359.8 81.96 361.038 81.256C362.296 80.5307 363.704 80.168 365.262 80.168C366.734 80.168 368.056 80.5093 369.23 81.192C370.424 81.8747 371.363 82.8453 372.046 84.104C372.75 85.3627 373.102 86.8773 373.102 88.648C373.102 90.376 372.76 91.88 372.078 93.16C371.395 94.44 370.456 95.4213 369.262 96.104C368.088 96.7867 366.755 97.128 365.262 97.128ZM365.358 95.688C366.638 95.688 367.779 95.4 368.782 94.824C369.806 94.2267 370.606 93.3947 371.182 92.328C371.779 91.2613 372.078 90.0347 372.078 88.648C372.078 87.24 371.779 86.0133 371.182 84.968C370.606 83.9013 369.806 83.08 368.782 82.504C367.779 81.9067 366.638 81.608 365.358 81.608C364.078 81.608 362.926 81.9067 361.902 82.504C360.899 83.08 360.099 83.9013 359.502 84.968C358.926 86.0133 358.638 87.24 358.638 88.648C358.638 90.0347 358.926 91.2613 359.502 92.328C360.099 93.3947 360.899 94.2267 361.902 94.824C362.926 95.4 364.078 95.688 365.358 95.688ZM372.11 97V91.528L372.398 88.616L372.078 85.704V73.256H373.678V97H372.11ZM387.207 97.128C385.522 97.128 384.029 96.7653 382.727 96.04C381.447 95.3147 380.434 94.312 379.687 93.032C378.962 91.752 378.599 90.2907 378.599 88.648C378.599 86.984 378.941 85.5227 379.623 84.264C380.327 82.984 381.287 81.9813 382.503 81.256C383.719 80.5307 385.085 80.168 386.599 80.168C388.114 80.168 389.469 80.52 390.663 81.224C391.879 81.928 392.829 82.92 393.511 84.2C394.215 85.4587 394.567 86.92 394.567 88.584C394.567 88.648 394.557 88.7227 394.535 88.808C394.535 88.872 394.535 88.9467 394.535 89.032H379.783V87.784H393.671L393.031 88.392C393.053 87.0907 392.775 85.928 392.199 84.904C391.645 83.8587 390.887 83.048 389.927 82.472C388.967 81.8747 387.858 81.576 386.599 81.576C385.362 81.576 384.253 81.8747 383.271 82.472C382.311 83.048 381.554 83.8587 380.999 84.904C380.445 85.928 380.167 87.1013 380.167 88.424V88.712C380.167 90.0773 380.466 91.2933 381.063 92.36C381.682 93.4053 382.525 94.2267 383.591 94.824C384.658 95.4 385.874 95.688 387.239 95.688C388.306 95.688 389.298 95.496 390.215 95.112C391.154 94.728 391.943 94.1413 392.583 93.352L393.511 94.408C392.786 95.304 391.869 95.9867 390.759 96.456C389.671 96.904 388.487 97.128 387.207 97.128ZM399.517 97V73.256H401.117V97H399.517ZM407.861 97V80.296H409.461V97H407.861ZM408.661 76.232C408.298 76.232 407.989 76.104 407.733 75.848C407.477 75.592 407.349 75.2933 407.349 74.952C407.349 74.5893 407.477 74.28 407.733 74.024C407.989 73.768 408.298 73.64 408.661 73.64C409.045 73.64 409.354 73.768 409.589 74.024C409.845 74.2587 409.973 74.5573 409.973 74.92C409.973 75.2827 409.845 75.592 409.589 75.848C409.354 76.104 409.045 76.232 408.661 76.232ZM424.365 80.168C425.73 80.168 426.914 80.4347 427.917 80.968C428.941 81.48 429.73 82.2693 430.285 83.336C430.861 84.3813 431.149 85.6827 431.149 87.24V97H429.549V87.368C429.549 85.4907 429.069 84.0613 428.109 83.08C427.17 82.0987 425.847 81.608 424.141 81.608C422.839 81.608 421.709 81.8747 420.749 82.408C419.789 82.9413 419.053 83.688 418.541 84.648C418.05 85.608 417.805 86.76 417.805 88.104V97H416.205V80.296H417.741V84.936L417.516 84.424C418.029 83.1013 418.871 82.0667 420.045 81.32C421.218 80.552 422.658 80.168 424.365 80.168ZM444.68 103.336C443.165 103.336 441.725 103.101 440.36 102.632C438.994 102.163 437.885 101.512 437.032 100.68L437.896 99.464C438.728 100.232 439.72 100.829 440.872 101.256C442.045 101.683 443.304 101.896 444.648 101.896C446.888 101.896 448.53 101.373 449.576 100.328C450.642 99.2827 451.176 97.64 451.176 95.4V90.76L451.496 88.264L451.24 85.768V80.296H452.776V95.208C452.776 98.0027 452.093 100.051 450.728 101.352C449.384 102.675 447.368 103.336 444.68 103.336ZM444.232 96.392C442.653 96.392 441.234 96.0507 439.976 95.368C438.738 94.664 437.746 93.704 437 92.488C436.274 91.2507 435.912 89.8427 435.912 88.264C435.912 86.664 436.274 85.256 437 84.04C437.746 82.824 438.738 81.8747 439.976 81.192C441.234 80.5093 442.653 80.168 444.232 80.168C445.746 80.168 447.101 80.4987 448.296 81.16C449.512 81.8 450.472 82.728 451.176 83.944C451.88 85.1387 452.232 86.5787 452.232 88.264C452.232 89.928 451.88 91.368 451.176 92.584C450.472 93.8 449.512 94.7387 448.296 95.4C447.101 96.0613 445.746 96.392 444.232 96.392ZM444.36 94.952C445.704 94.952 446.888 94.6747 447.912 94.12C448.936 93.544 449.736 92.7547 450.312 91.752C450.909 90.728 451.208 89.5653 451.208 88.264C451.208 86.9413 450.909 85.7787 450.312 84.776C449.736 83.7733 448.936 82.9947 447.912 82.44C446.888 81.8853 445.704 81.608 444.36 81.608C443.058 81.608 441.885 81.8853 440.84 82.44C439.816 82.9947 439.005 83.7733 438.408 84.776C437.832 85.7787 437.544 86.9413 437.544 88.264C437.544 89.5653 437.832 90.728 438.408 91.752C439.005 92.7547 439.816 93.544 440.84 94.12C441.885 94.6747 443.058 94.952 444.36 94.952Z" fill="white"/>
</svg>
