<svg width="528" height="107" viewBox="0 0 528 107" fill="none" xmlns="http://www.w3.org/2000/svg">
<path d="M65.9196 5L68.2344 2.37486L65.894 0.311011L63.5762 2.40029L65.9196 5ZM10 55.4062L7.65661 52.8065L0.889717 58.9062H10V55.4062ZM24.2906 55.4062H27.7906V51.9062H24.2906V55.4062ZM24.2906 101.509H20.7906V105.009H24.2906V101.509ZM107.549 101.509V105.009H111.049V101.509H107.549ZM107.549 55.4062V51.9062H104.049V55.4062H107.549ZM123.082 55.4062V58.9062H132.343L125.397 52.7811L123.082 55.4062ZM63.5762 2.40029L7.65661 52.8065L12.3434 58.0059L68.2629 7.59971L63.5762 2.40029ZM10 58.9062H24.2906V51.9062H10V58.9062ZM20.7906 55.4062V101.509H27.7906V55.4062H20.7906ZM24.2906 105.009H55.9783V98.0094H24.2906V105.009ZM55.9783 105.009H76.4821V98.0094H55.9783V105.009ZM76.4821 105.009H107.549V98.0094H76.4821V105.009ZM111.049 101.509V55.4062H104.049V101.509H111.049ZM107.549 58.9062H123.082V51.9062H107.549V58.9062ZM125.397 52.7811L68.2344 2.37486L63.6047 7.62514L120.767 58.0313L125.397 52.7811Z" fill="black"/>
<path d="M120.157 27.4971L76.2891 67.7202H87.4998V104.51H112.358V80.4739H128.443V104.51H152.814V67.7202H165L120.157 27.4971Z" fill="white"/>
<path d="M185.288 66V34.608H173.192V32.4H199.832V34.608H187.736V66H185.288ZM199.554 66L213.186 47.712V49.632L200.466 32.4H203.346L214.578 47.568H213.522L224.754 32.4H227.49L214.866 49.44V47.808L228.402 66H225.522L213.426 49.776H214.434L202.434 66H199.554ZM190.724 80.645H192.134V100H190.724V80.645ZM177.783 100H176.373V80.645H177.783V100ZM190.89 90.7926H177.618V89.5483H190.89V90.7926ZM207.105 100.138C205.667 100.138 204.331 99.8986 203.096 99.4193C201.879 98.9216 200.81 98.2304 199.888 97.3456C198.985 96.4424 198.285 95.4009 197.787 94.2211C197.289 93.023 197.04 91.7234 197.04 90.3225C197.04 88.9216 197.289 87.6312 197.787 86.4515C198.285 85.2533 198.985 84.2118 199.888 83.327C200.81 82.4238 201.879 81.7326 203.096 81.2533C204.331 80.7556 205.667 80.5067 207.105 80.5067C208.543 80.5067 209.87 80.7556 211.087 81.2533C212.322 81.7326 213.391 82.4146 214.294 83.2994C215.197 84.1842 215.898 85.2257 216.395 86.4238C216.912 87.6036 217.17 88.9031 217.17 90.3225C217.17 91.7419 216.912 93.0506 216.395 94.2488C215.898 95.4285 215.197 96.4608 214.294 97.3456C213.391 98.2304 212.322 98.9216 211.087 99.4193C209.87 99.8986 208.543 100.138 207.105 100.138ZM207.105 98.8387C208.34 98.8387 209.483 98.6267 210.534 98.2027C211.584 97.7788 212.497 97.1797 213.271 96.4055C214.045 95.6313 214.644 94.7281 215.068 93.6958C215.511 92.6635 215.732 91.5391 215.732 90.3225C215.732 89.0875 215.511 87.963 215.068 86.9492C214.644 85.9169 214.045 85.0137 213.271 84.2395C212.497 83.4653 211.584 82.8662 210.534 82.4422C209.483 82.0183 208.34 81.8063 207.105 81.8063C205.87 81.8063 204.727 82.0183 203.676 82.4422C202.626 82.8662 201.704 83.4653 200.911 84.2395C200.137 85.0137 199.529 85.9169 199.086 86.9492C198.663 87.963 198.451 89.0875 198.451 90.3225C198.451 91.5391 198.663 92.6635 199.086 93.6958C199.529 94.7281 200.137 95.6313 200.911 96.4055C201.704 97.1797 202.626 97.7788 203.676 98.2027C204.727 98.6267 205.87 98.8387 207.105 98.8387ZM222.061 100V80.645H223.25L232.236 96.1566H231.6L240.558 80.645H241.72L241.747 100H240.365L240.337 82.774H240.724L232.236 97.4285H231.545L223.028 82.774H223.443V100H222.061ZM249.74 89.5483H260.219V90.7926H249.74V89.5483ZM249.906 98.7281H261.85V100H248.496V80.645H261.436V81.9169H249.906V98.7281ZM274.093 100V80.645H281.034C282.656 80.645 284.047 80.9031 285.209 81.4192C286.37 81.9353 287.264 82.6819 287.891 83.6588C288.517 84.6174 288.831 85.7879 288.831 87.1704C288.831 88.516 288.517 89.6773 287.891 90.6543C287.264 91.6128 286.37 92.3594 285.209 92.894C284.047 93.4101 282.656 93.6681 281.034 93.6681H274.868L275.504 93.0045V100H274.093ZM287.531 100L282.499 92.9769H284.103L289.135 100H287.531ZM275.504 93.0875L274.868 92.4239H281.034C283.116 92.4239 284.693 91.9631 285.762 91.0414C286.849 90.1197 287.393 88.8294 287.393 87.1704C287.393 85.493 286.849 84.2026 285.762 83.2994C284.693 82.3777 283.116 81.9169 281.034 81.9169H274.868L275.504 81.2256V93.0875ZM295.238 89.5483H305.717V90.7926H295.238V89.5483ZM295.404 98.7281H307.349V100H293.994V80.645H306.934V81.9169H295.404V98.7281ZM312.49 100V80.645H313.679L322.665 96.1566H322.029L330.988 80.645H332.149L332.177 100H330.794L330.767 82.774H331.154L322.665 97.4285H321.974L313.458 82.774H313.873V100H312.49ZM347.137 100.138C345.699 100.138 344.363 99.8986 343.128 99.4193C341.911 98.9216 340.842 98.2304 339.92 97.3456C339.017 96.4424 338.317 95.4009 337.819 94.2211C337.321 93.023 337.073 91.7234 337.073 90.3225C337.073 88.9216 337.321 87.6312 337.819 86.4515C338.317 85.2533 339.017 84.2118 339.92 83.327C340.842 82.4238 341.911 81.7326 343.128 81.2533C344.363 80.7556 345.699 80.5067 347.137 80.5067C348.575 80.5067 349.902 80.7556 351.119 81.2533C352.354 81.7326 353.423 82.4146 354.326 83.2994C355.229 84.1842 355.93 85.2257 356.428 86.4238C356.944 87.6036 357.202 88.9031 357.202 90.3225C357.202 91.7419 356.944 93.0506 356.428 94.2488C355.93 95.4285 355.229 96.4608 354.326 97.3456C353.423 98.2304 352.354 98.9216 351.119 99.4193C349.902 99.8986 348.575 100.138 347.137 100.138ZM347.137 98.8387C348.372 98.8387 349.515 98.6267 350.566 98.2027C351.616 97.7788 352.529 97.1797 353.303 96.4055C354.077 95.6313 354.676 94.7281 355.1 93.6958C355.543 92.6635 355.764 91.5391 355.764 90.3225C355.764 89.0875 355.543 87.963 355.1 86.9492C354.676 85.9169 354.077 85.0137 353.303 84.2395C352.529 83.4653 351.616 82.8662 350.566 82.4422C349.515 82.0183 348.372 81.8063 347.137 81.8063C345.902 81.8063 344.759 82.0183 343.709 82.4422C342.658 82.8662 341.736 83.4653 340.944 84.2395C340.169 85.0137 339.561 85.9169 339.119 86.9492C338.695 87.963 338.483 89.0875 338.483 90.3225C338.483 91.5391 338.695 92.6635 339.119 93.6958C339.561 94.7281 340.169 95.6313 340.944 96.4055C341.736 97.1797 342.658 97.7788 343.709 98.2027C344.759 98.6267 345.902 98.8387 347.137 98.8387ZM362.093 100V80.645H369.752C371.798 80.645 373.595 81.0597 375.144 81.8892C376.692 82.7187 377.89 83.8616 378.738 85.3178C379.604 86.7741 380.038 88.4423 380.038 90.3225C380.038 92.2027 379.604 93.8709 378.738 95.3271C377.89 96.7834 376.692 97.9262 375.144 98.7557C373.595 99.5852 371.798 100 369.752 100H362.093ZM363.503 98.7281H369.641C371.466 98.7281 373.051 98.3686 374.397 97.6498C375.743 96.9308 376.784 95.9447 377.521 94.6912C378.259 93.4193 378.627 91.9631 378.627 90.3225C378.627 88.6819 378.259 87.2349 377.521 85.9814C376.784 84.7095 375.743 83.7141 374.397 82.9952C373.051 82.2763 371.466 81.9169 369.641 81.9169H363.503V98.7281ZM386.181 89.5483H396.66V90.7926H386.181V89.5483ZM386.347 98.7281H398.291V100H384.936V80.645H397.877V81.9169H386.347V98.7281ZM403.433 100V80.645H404.843V98.7281H415.986V100H403.433ZM419.607 100V80.645H421.017V100H419.607ZM427.761 100V80.645H428.95L442.748 98.258H442.112V80.645H443.522V100H442.361L428.536 82.3869H429.172V100H427.761ZM458.548 100.138C457.092 100.138 455.747 99.8986 454.512 99.4193C453.277 98.9216 452.198 98.2304 451.277 97.3456C450.373 96.4608 449.673 95.4285 449.175 94.2488C448.677 93.0506 448.429 91.7419 448.429 90.3225C448.429 88.9031 448.677 87.6036 449.175 86.4238C449.673 85.2257 450.382 84.1842 451.304 83.2994C452.226 82.4146 453.295 81.7326 454.512 81.2533C455.747 80.7556 457.101 80.5067 458.576 80.5067C459.977 80.5067 461.277 80.7279 462.475 81.1703C463.673 81.6127 464.696 82.2763 465.544 83.1611L464.659 84.1012C463.811 83.2717 462.88 82.6819 461.866 82.3316C460.871 81.9814 459.783 81.8063 458.604 81.8063C457.35 81.8063 456.189 82.0183 455.12 82.4422C454.051 82.8662 453.12 83.4653 452.327 84.2395C451.535 85.0137 450.917 85.9169 450.475 86.9492C450.051 87.9815 449.839 89.1059 449.839 90.3225C449.839 91.5391 450.051 92.6635 450.475 93.6958C450.917 94.7281 451.535 95.6313 452.327 96.4055C453.12 97.1797 454.051 97.7788 455.12 98.2027C456.189 98.6267 457.35 98.8387 458.604 98.8387C459.747 98.8387 460.825 98.6636 461.839 98.3133C462.871 97.9631 463.811 97.3825 464.659 96.5714L465.461 97.6498C464.595 98.4792 463.553 99.106 462.337 99.5299C461.138 99.9355 459.876 100.138 458.548 100.138ZM464.106 97.5115V90.4055H465.461V97.6498L464.106 97.5115ZM478.768 100V80.645H480.178V98.7281H491.321V100H478.768ZM494.942 100V80.645H496.352V98.7281H507.495V100H494.942ZM518.923 100.138C517.485 100.138 516.149 99.8986 514.914 99.4193C513.697 98.9216 512.637 98.2304 511.734 97.3456C510.831 96.4608 510.13 95.4285 509.632 94.2488C509.135 93.0506 508.886 91.7419 508.886 90.3225C508.886 88.9031 509.135 87.6036 509.632 86.4238C510.13 85.2257 510.831 84.1842 511.734 83.2994C512.656 82.4146 513.725 81.7326 514.941 81.2533C516.158 80.7556 517.485 80.5067 518.923 80.5067C520.287 80.5067 521.559 80.7279 522.739 81.1703C523.937 81.6127 524.96 82.2856 525.808 83.1888L524.923 84.1012C524.093 83.2902 523.172 82.7095 522.158 82.3593C521.163 81.9906 520.103 81.8063 518.978 81.8063C517.743 81.8063 516.591 82.0183 515.522 82.4422C514.471 82.8662 513.55 83.4653 512.757 84.2395C511.983 85.0137 511.374 85.9169 510.932 86.9492C510.508 87.9815 510.296 89.1059 510.296 90.3225C510.296 91.5391 510.508 92.6635 510.932 93.6958C511.374 94.7281 511.983 95.6313 512.757 96.4055C513.55 97.1797 514.471 97.7788 515.522 98.2027C516.591 98.6267 517.743 98.8387 518.978 98.8387C520.103 98.8387 521.163 98.6636 522.158 98.3133C523.172 97.9447 524.093 97.3456 524.923 96.5161L525.808 97.4285C524.96 98.3318 523.937 99.0138 522.739 99.4746C521.559 99.917 520.287 100.138 518.923 100.138Z" fill="white"/>
</svg>
