<svg width="89" height="14" viewBox="0 0 89 14" fill="none" xmlns="http://www.w3.org/2000/svg">
<path d="M0.504 13V1.8H2.584V13H0.504ZM10.2694 4.36C10.952 4.36 11.56 4.49333 12.0934 4.76C12.6374 5.02667 13.064 5.43733 13.3734 5.992C13.6827 6.536 13.8374 7.24 13.8374 8.104V13H11.8374V8.36C11.8374 7.60267 11.656 7.03733 11.2934 6.664C10.9414 6.29067 10.4454 6.104 9.80538 6.104C9.33604 6.104 8.92004 6.2 8.55738 6.392C8.19471 6.584 7.91204 6.872 7.70938 7.256C7.51738 7.62933 7.42138 8.104 7.42138 8.68V13H5.42138V4.456H7.32538V6.76L6.98938 6.056C7.28804 5.512 7.72004 5.096 8.28538 4.808C8.86138 4.50933 9.52271 4.36 10.2694 4.36ZM19.5905 13.112C18.6518 13.112 17.9265 12.872 17.4145 12.392C16.9025 11.9013 16.6465 11.1813 16.6465 10.232V2.568H18.6465V10.184C18.6465 10.5893 18.7478 10.904 18.9505 11.128C19.1638 11.352 19.4572 11.464 19.8305 11.464C20.2785 11.464 20.6518 11.3467 20.9505 11.112L21.5105 12.536C21.2758 12.728 20.9878 12.872 20.6465 12.968C20.3052 13.064 19.9532 13.112 19.5905 13.112ZM15.2385 6.12V4.52H20.9345V6.12H15.2385ZM26.8905 13.112C25.9412 13.112 25.1092 12.9253 24.3945 12.552C23.6905 12.168 23.1412 11.6453 22.7465 10.984C22.3625 10.3227 22.1705 9.57067 22.1705 8.728C22.1705 7.87467 22.3572 7.12267 22.7305 6.472C23.1145 5.81067 23.6372 5.29333 24.2985 4.92C24.9705 4.54667 25.7332 4.36 26.5865 4.36C27.4185 4.36 28.1598 4.54133 28.8105 4.904C29.4612 5.26667 29.9732 5.77867 30.3465 6.44C30.7198 7.10133 30.9065 7.88 30.9065 8.776C30.9065 8.86133 30.9012 8.95733 30.8905 9.064C30.8905 9.17067 30.8852 9.272 30.8745 9.368H23.7545V8.04H29.8185L29.0345 8.456C29.0452 7.96533 28.9438 7.53333 28.7305 7.16C28.5172 6.78667 28.2238 6.49333 27.8505 6.28C27.4878 6.06667 27.0665 5.96 26.5865 5.96C26.0958 5.96 25.6638 6.06667 25.2905 6.28C24.9278 6.49333 24.6398 6.792 24.4265 7.176C24.2238 7.54933 24.1225 7.992 24.1225 8.504V8.824C24.1225 9.336 24.2398 9.78933 24.4745 10.184C24.7092 10.5787 25.0398 10.8827 25.4665 11.096C25.8932 11.3093 26.3838 11.416 26.9385 11.416C27.4185 11.416 27.8505 11.3413 28.2345 11.192C28.6185 11.0427 28.9598 10.808 29.2585 10.488L30.3305 11.72C29.9465 12.168 29.4612 12.5147 28.8745 12.76C28.2985 12.9947 27.6372 13.112 26.8905 13.112ZM32.8276 13V1.128H34.8276V13H32.8276ZM37.4526 13V1.128H39.4526V13H37.4526ZM42.0776 13V4.456H44.0776V13H42.0776ZM43.0856 3.048C42.7123 3.048 42.403 2.93067 42.1576 2.696C41.923 2.46133 41.8056 2.17867 41.8056 1.848C41.8056 1.50667 41.923 1.224 42.1576 0.999999C42.403 0.765333 42.7123 0.648 43.0856 0.648C43.459 0.648 43.763 0.76 43.9976 0.983999C44.243 1.19733 44.3656 1.46933 44.3656 1.8C44.3656 2.152 44.2483 2.45067 44.0136 2.696C43.779 2.93067 43.4696 3.048 43.0856 3.048Z" fill="white"/>
<path d="M51.7645 13V1.8H52.4525L60.4365 11.992H60.0685V1.8H60.8845V13H60.2125L52.2125 2.808H52.5805V13H51.7645ZM67.8038 13.064C67.0038 13.064 66.2891 12.8827 65.6598 12.52C65.0411 12.1573 64.5451 11.656 64.1718 11.016C63.8091 10.376 63.6278 9.64533 63.6278 8.824C63.6278 7.992 63.8091 7.26133 64.1718 6.632C64.5451 5.992 65.0411 5.49067 65.6598 5.128C66.2891 4.76533 67.0038 4.584 67.8038 4.584C68.6038 4.584 69.3184 4.76533 69.9478 5.128C70.5771 5.49067 71.0731 5.992 71.4358 6.632C71.7984 7.26133 71.9798 7.992 71.9798 8.824C71.9798 9.64533 71.7984 10.376 71.4358 11.016C71.0731 11.656 70.5771 12.1573 69.9478 12.52C69.3184 12.8827 68.6038 13.064 67.8038 13.064ZM67.8038 12.344C68.4438 12.344 69.0198 12.2 69.5318 11.912C70.0438 11.6133 70.4438 11.1973 70.7318 10.664C71.0198 10.1307 71.1638 9.51733 71.1638 8.824C71.1638 8.12 71.0198 7.50667 70.7318 6.984C70.4438 6.45067 70.0438 6.04 69.5318 5.752C69.0198 5.45333 68.4438 5.304 67.8038 5.304C67.1638 5.304 66.5878 5.45333 66.0758 5.752C65.5744 6.04 65.1744 6.45067 64.8758 6.984C64.5878 7.50667 64.4438 8.12 64.4438 8.824C64.4438 9.51733 64.5878 10.1307 64.8758 10.664C65.1744 11.1973 65.5744 11.6133 66.0758 11.912C66.5878 12.2 67.1638 12.344 67.8038 12.344ZM76.3393 13L72.5793 4.648H73.4273L76.9473 12.552H76.5633L80.1153 4.648H80.9313L77.1553 13H76.3393ZM87.6944 13V11.096L87.6624 10.808V7.672C87.6624 6.89333 87.449 6.30133 87.0224 5.896C86.6064 5.49067 85.993 5.288 85.1824 5.288C84.6064 5.288 84.0677 5.38933 83.5664 5.592C83.0757 5.784 82.6544 6.03467 82.3024 6.344L81.9024 5.768C82.3184 5.39467 82.8197 5.10667 83.4064 4.904C83.993 4.69067 84.6064 4.584 85.2464 4.584C86.281 4.584 87.0757 4.84533 87.6304 5.368C88.185 5.89067 88.4624 6.66933 88.4624 7.704V13H87.6944ZM84.6864 13.064C84.0677 13.064 83.529 12.968 83.0704 12.776C82.6224 12.5733 82.2757 12.2907 82.0304 11.928C81.7957 11.5653 81.6784 11.1493 81.6784 10.68C81.6784 10.2533 81.7744 9.86933 81.9664 9.528C82.169 9.176 82.4997 8.89333 82.9584 8.68C83.417 8.456 84.0304 8.344 84.7984 8.344H87.8704V8.968H84.8144C83.9504 8.968 83.3424 9.128 82.9904 9.448C82.649 9.768 82.4784 10.168 82.4784 10.648C82.4784 11.1813 82.681 11.608 83.0864 11.928C83.4917 12.248 84.0624 12.408 84.7984 12.408C85.5024 12.408 86.0944 12.248 86.5744 11.928C87.065 11.608 87.4277 11.144 87.6624 10.536L87.8864 11.08C87.6624 11.688 87.2784 12.1733 86.7344 12.536C86.201 12.888 85.5184 13.064 84.6864 13.064Z" fill="#E8B100"/>
</svg>
