<svg width="73" height="52" viewBox="0 0 73 52" fill="none" xmlns="http://www.w3.org/2000/svg">
<path d="M5 27.3142L3.59214 25.8937L0.140812 29.3142H5V27.3142ZM29.533 3L30.9252 1.56408L29.5177 0.199409L28.1252 1.57946L29.533 3ZM54.6113 27.3142V29.3142H59.5473L56.0034 25.8783L54.6113 27.3142ZM47.7965 27.3142V25.3142H45.7965V27.3142H47.7965ZM47.7965 49.5528V51.5528H49.7965V49.5528H47.7965ZM11.2696 49.5528H9.26956V51.5528H11.2696V49.5528ZM11.2696 27.3142H13.2696V25.3142H11.2696V27.3142ZM6.40786 28.7347L30.9409 4.42054L28.1252 1.57946L3.59214 25.8937L6.40786 28.7347ZM28.1409 4.43592L53.2191 28.7501L56.0034 25.8783L30.9252 1.56408L28.1409 4.43592ZM54.6113 25.3142H47.7965V29.3142H54.6113V25.3142ZM45.7965 27.3142V49.5528H49.7965V27.3142H45.7965ZM47.7965 47.5528H34.1671V51.5528H47.7965V47.5528ZM25.1716 47.5528H11.2696V51.5528H25.1716V47.5528ZM13.2696 49.5528V27.3142H9.26956V49.5528H13.2696ZM11.2696 25.3142H5V29.3142H11.2696V25.3142ZM25.1716 51.5528H34.1671V47.5528H25.1716V51.5528Z" fill="#F5F5F5"/>
<path d="M53.3239 13.8518L34.0781 33.254H38.9965V51H49.9024V39.406H56.9592V51H67.6513V33.254H72.9973L53.3239 13.8518Z" fill="#F5F5F5"/>
</svg>
